<?xml version="1.0" encoding="utf-8"?>
<!-- Generator: Adobe Illustrator 22.1.0, SVG Export Plug-In . SVG Version: 6.00 Build 0)  -->
<svg width="1em" height="1em" version="1.1" id="Layer_1" xmlns="http://www.w3.org/2000/svg" xmlns:xlink="http://www.w3.org/1999/xlink" x="0px" y="0px"
	 viewBox="0 0 512 512" style="enable-background:new 0 0 512 512;" xml:space="preserve">
<style type="text/css">
	.st0{fill:#6770E6;}
	.st1{fill:#5861C7;}
	.st2{fill:#FFEFE4;}
	.st3{fill:#D476E2;}
	.st4{fill:#EA82FA;}
	.st5{fill:#B665C2;}
	.st6{fill:#69EBFC;}
	.st7{fill:#FF8354;}
	.st8{fill:#333399;}
	.st9{fill:#E0734A;}
	.st10{fill:#FFAC8C;}
	.st11{fill:#382F8B;}
	.st12{fill:#C7FCFE;}
	.st13{fill:#EDD4C2;}
	.st14{fill:#8F95E6;}
	.st15{fill:#A1F1FC;}
	.st16{fill:#FFF7F2;}
	.st17{opacity:0.8;fill:#A1F1FC;}
	.st18{fill:#4C54AD;}
	.st19{fill:#5FD4E3;}
	.st20{fill:#FFE4D1;}
	.st21{fill:#5ED4E3;}
	.st22{fill:#56C1CF;}
	.st23{fill:#9FA5FF;}
	.st24{fill:#C46541;}
	.st25{fill:#FFCAB5;}
	.st26{fill:#5A62C9;}
	.st27{fill:#BABEFF;}
</style>
<g>
	<g>
		<path class="st0" d="M0,80v414c0,9.941,8.059,18,18,18h24c9.941,0,18-8.059,18-18v0c0-9.941,8.059-18,18-18h356
			c9.941,0,18,8.059,18,18v0c0,9.941,8.059,18,18,18h24c9.941,0,18-8.059,18-18V80H0z"/>
	</g>
	<g>
		<path class="st1" d="M494,492h-24c-9.941,0-18-8.059-18-18s-8.059-18-18-18H78c-9.941,0-18,8.059-18,18s-8.059,18-18,18H18
			c-9.941,0-18-8.059-18-18v20c0,9.941,8.059,18,18,18h24c9.941,0,18-8.059,18-18s8.059-18,18-18h356c9.941,0,18,8.059,18,18
			s8.059,18,18,18h24c9.941,0,18-8.059,18-18v-20C512,483.941,503.941,492,494,492z"/>
	</g>
	<g>
		<path class="st2" d="M60,416V140c0-9.941,8.059-18,18-18h356c9.941,0,18,8.059,18,18v276c0,9.941-8.059,18-18,18H78
			C68.059,434,60,425.941,60,416z"/>
	</g>
	<g>
		<path class="st3" d="M512,80H0V18C0,8.059,8.059,0,18,0h476c9.941,0,18,8.059,18,18V80z"/>
	</g>
	<g>
		<path class="st4" d="M494,0H18C8.059,0,0,8.059,0,18v20c0-9.941,8.059-18,18-18h476c9.941,0,18,8.059,18,18V18
			C512,8.059,503.941,0,494,0z"/>
	</g>
	<g>
		<rect x="140" class="st5" width="232" height="80"/>
	</g>
	<g>
		<rect x="140" class="st3" width="232" height="20"/>
	</g>
	<g>
		<circle class="st6" cx="180" cy="40" r="16"/>
	</g>
	<g>
		<path class="st7" d="M264,52h-36c-6.627,0-12-5.373-12-12v0c0-6.627,5.373-12,12-12h36c6.627,0,12,5.373,12,12v0
			C276,46.627,270.627,52,264,52z"/>
	</g>
	<g>
		<path class="st7" d="M332,52h-36c-6.627,0-12-5.373-12-12v0c0-6.627,5.373-12,12-12h36c6.627,0,12,5.373,12,12v0
			C344,46.627,338.627,52,332,52z"/>
	</g>
	<rect x="60" y="160" class="st5" width="392" height="20"/>
	<path class="st8" d="M198,158.496v23.007c0,3.588,2.909,6.496,6.496,6.496h21.007c3.588,0,6.496,2.909,6.496,6.496V220h48v-25.504
		c0-3.588,2.909-6.496,6.496-6.496h21.007c3.588,0,6.496-2.909,6.496-6.496v-23.007c0-3.588-2.909-6.496-6.496-6.496H204.496
		C200.909,152,198,154.909,198,158.496z"/>
	<g>
		<path class="st7" d="M304,352h-8v-35.234c0-9.245-7.521-16.766-16.766-16.766H242c-9.925,0-18-8.075-18-18v-4
			c0-9.925,8.075-18,18-18c5.514,0,10-4.486,10-10v-10h8v10c0,9.925-8.075,18-18,18c-5.514,0-10,4.486-10,10v4
			c0,5.514,4.486,10,10,10h37.234C292.89,292,304,303.11,304,316.766V352z"/>
	</g>
	<g>
		<path class="st3" d="M280,220h-48l17.439,20.927c1.623,1.947,4.026,3.073,6.561,3.073l0,0c2.535,0,4.938-1.126,6.561-3.073
			L280,220z"/>
	</g>
	<g>
		<path class="st7" d="M288.371,434h-64.742c-9.736,0-17.629-7.893-17.629-17.629v-64.742c0-9.736,7.893-17.629,17.629-17.629
			h64.742c9.736,0,17.629,7.893,17.629,17.629v64.742C306,426.107,298.107,434,288.371,434z"/>
	</g>
</g>
</svg>
