<?xml version="1.0" encoding="utf-8"?>
<!-- Generator: Adobe Illustrator 22.1.0, SVG Export Plug-In . SVG Version: 6.00 Build 0)  -->
<svg width="1em" height="1em" version="1.1" id="Layer_1" xmlns="http://www.w3.org/2000/svg" xmlns:xlink="http://www.w3.org/1999/xlink" x="0px" y="0px"
	 viewBox="0 0 512 512" style="enable-background:new 0 0 512 512;" xml:space="preserve">
<style type="text/css">
	.st0{fill:#6770E6;}
	.st1{fill:#5861C7;}
	.st2{fill:#FFEFE4;}
	.st3{fill:#D476E2;}
	.st4{fill:#EA82FA;}
	.st5{fill:#B665C2;}
	.st6{fill:#69EBFC;}
	.st7{fill:#FF8354;}
	.st8{fill:#333399;}
	.st9{fill:#E0734A;}
	.st10{fill:#FFAC8C;}
	.st11{fill:#382F8B;}
	.st12{fill:#C7FCFE;}
	.st13{fill:#EDD4C2;}
	.st14{fill:#8F95E6;}
	.st15{fill:#A1F1FC;}
	.st16{fill:#FFF7F2;}
	.st17{opacity:0.8;fill:#A1F1FC;}
	.st18{fill:#4C54AD;}
	.st19{fill:#5FD4E3;}
	.st20{fill:#FFE4D1;}
	.st21{fill:#5ED4E3;}
	.st22{fill:#56C1CF;}
	.st23{fill:#9FA5FF;}
	.st24{fill:#C46541;}
	.st25{fill:#FFCAB5;}
	.st26{fill:#5A62C9;}
	.st27{fill:#BABEFF;}
</style>
<g>
	<rect y="420.999" class="st14" width="12" height="16"/>
	<rect x="368.471" y="420.999" class="st14" width="23.765" height="16"/>
	<rect x="320.941" y="420.999" class="st14" width="23.765" height="16"/>
	<rect x="273.412" y="420.999" class="st14" width="23.765" height="16"/>
	<rect x="225.882" y="420.999" class="st14" width="23.765" height="16"/>
	<rect x="178.353" y="420.999" class="st14" width="23.765" height="16"/>
	<rect x="130.823" y="420.999" class="st14" width="23.765" height="16"/>
	<rect x="83.294" y="420.999" class="st14" width="23.765" height="16"/>
	<rect x="35.765" y="420.999" class="st14" width="23.765" height="16"/>
	<polygon class="st14" points="436,436.999 416,436.999 416,420.999 420,420.999 420,416.999 436,416.999 	"/>
	<rect x="420" y="369.47" class="st14" width="16" height="23.765"/>
	<rect x="420" y="321.94" class="st14" width="16" height="23.765"/>
	<rect x="420" y="274.411" class="st14" width="16" height="23.765"/>
	<rect x="420" y="226.882" class="st14" width="16" height="23.765"/>
	<rect x="420" y="179.352" class="st14" width="16" height="23.765"/>
	<rect x="420" y="131.823" class="st14" width="16" height="23.765"/>
	<rect x="420" y="84.293" class="st14" width="16" height="23.765"/>
	<rect x="420" y="36.764" class="st14" width="16" height="23.765"/>
	<rect x="420" y="0.999" class="st14" width="16" height="12"/>
	<path class="st7" d="M0,428.999L0,428.999l0-428h428v0C428,237.377,236.378,428.999,0,428.999z"/>
	<path class="st10" d="M0,0.999v20h427.52c0.305-6.63,0.48-13.294,0.48-20v0H0z"/>
	<path class="st1" d="M0,436.999v-16c56.703,0,111.706-11.104,163.48-33.002c50.013-21.153,94.93-51.438,133.504-90.012
		c38.575-38.575,68.859-83.492,90.014-133.504C408.896,112.706,420,57.703,420,1l16,0c0,58.856-11.529,115.956-34.267,169.713
		c-21.96,51.919-53.396,98.546-93.435,138.585c-40.039,40.039-86.666,71.475-138.586,93.435
		C115.956,425.47,58.856,436.999,0,436.999z"/>
	<path class="st1" d="M116,492.999c-2.048,0-4.095-0.781-5.657-2.343c-3.124-3.124-3.124-8.189,0-11.313l368-368
		c3.125-3.125,8.189-3.125,11.314,0c3.124,3.124,3.124,8.189,0,11.313l-368,368C120.095,492.218,118.048,492.999,116,492.999z"/>
	<rect x="276" y="280.999" class="st1" width="48" height="48"/>
	<circle class="st1" cx="108" cy="492.999" r="20"/>
	<path class="st18" d="M108,496.999c-8.197,0-15.223-4.942-18.312-12c-1.073,2.453-1.688,5.151-1.688,8c0,11.046,8.954,20,20,20
		s20-8.954,20-20c0-2.849-0.615-5.547-1.688-8C123.223,492.057,116.197,496.999,108,496.999z"/>
	<circle class="st1" cx="492" cy="108.999" r="20"/>
	<rect x="0" y="404.999" class="st1" width="48" height="48"/>
	<rect x="404" y="0.999" class="st1" width="48" height="48"/>
	<rect x="404" y="0.999" class="st0" width="48" height="20"/>
	<path class="st6" d="M436.416,412.156l68.39-12.732c8.515-1.585,9.862-13.221,1.936-16.71l-202.623-89.199
		c-7.35-3.235-14.838,4.253-11.603,11.603l89.199,202.623c3.489,7.926,15.125,6.579,16.71-1.936l11.795-63.354l67.956,65.003
		c3.875,3.707,8.852,5.547,13.82,5.547c5.27,0,10.527-2.068,14.457-6.176c7.633-7.982,7.352-20.643-0.629-28.277L436.416,412.156z"
		/>
	<path class="st19" d="M506.453,486.825c-3.93,4.107-9.188,6.176-14.457,6.176c-4.969,0-9.945-1.84-13.82-5.547l-67.956-65.003
		l-11.795,63.354c-1.585,8.514-13.221,9.862-16.71,1.936l-85.362-193.907c-3.696,2.053-5.856,6.696-3.837,11.284l89.199,202.623
		c3.489,7.926,15.125,6.579,16.71-1.936l11.795-63.354l67.956,65.003c3.875,3.707,8.852,5.547,13.82,5.547
		c5.27,0,10.527-2.068,14.457-6.176c6.287-6.574,7.117-16.286,2.786-23.785C508.462,484.375,507.567,485.66,506.453,486.825z"/>
</g>
</svg>
