<?xml version="1.0" encoding="utf-8"?>
<!-- Generator: Adobe Illustrator 22.1.0, SVG Export Plug-In . SVG Version: 6.00 Build 0)  -->
<svg width="1em" height="1em" version="1.1" id="Layer_1" xmlns="http://www.w3.org/2000/svg" xmlns:xlink="http://www.w3.org/1999/xlink" x="0px" y="0px"
	 viewBox="0 0 512 512" style="enable-background:new 0 0 512 512;" xml:space="preserve">
<style type="text/css">
	.st0{fill:#6770E6;}
	.st1{fill:#5861C7;}
	.st2{fill:#FFEFE4;}
	.st3{fill:#D476E2;}
	.st4{fill:#EA82FA;}
	.st5{fill:#B665C2;}
	.st6{fill:#69EBFC;}
	.st7{fill:#FF8354;}
	.st8{fill:#333399;}
	.st9{fill:#E0734A;}
	.st10{fill:#FFAC8C;}
	.st11{fill:#382F8B;}
	.st12{fill:#C7FCFE;}
	.st13{fill:#EDD4C2;}
	.st14{fill:#8F95E6;}
	.st15{fill:#A1F1FC;}
	.st16{fill:#FFF7F2;}
	.st17{opacity:0.8;fill:#A1F1FC;}
	.st18{fill:#4C54AD;}
	.st19{fill:#5FD4E3;}
	.st20{fill:#FFE4D1;}
	.st21{fill:#5ED4E3;}
	.st22{fill:#56C1CF;}
	.st23{fill:#9FA5FF;}
	.st24{fill:#C46541;}
	.st25{fill:#FFCAB5;}
	.st26{fill:#5A62C9;}
	.st27{fill:#BABEFF;}
</style>
<g>
	<path id="XMLID_107_" class="st0" d="M503.285,333.048L8.721,333.055c-4.815,0-8.718-3.903-8.718-8.718L-0.001,8.725
		c0-4.815,3.903-8.718,8.718-8.718L503.281,0c4.815,0,8.718,3.903,8.718,8.718l0.004,315.612
		C512.003,329.145,508.1,333.048,503.285,333.048z"/>
	<path class="st14" d="M8.717,20.007L503.281,20c4.815,0,8.718,3.903,8.718,8.718l0.004,295.615c0-0.001,0-0.002,0-0.003
		L511.999,8.718c0-4.815-3.903-8.718-8.718-8.718L8.717,0.007c-4.815,0-8.718,3.903-8.718,8.718l0,19.997
		C0.001,23.909,3.903,20.007,8.717,20.007z"/>
	<path id="XMLID_106_" class="st2" d="M30.003,294.336L29.999,38.724c0-4.815,3.903-8.718,8.718-8.718L473.281,30
		c4.815,0,8.718,3.903,8.718,8.718l0.004,255.612c0,4.815-3.903,8.718-8.718,8.718l-434.564,0.006
		C33.906,303.054,30.003,299.151,30.003,294.336z"/>
	<rect id="XMLID_105_" x="199.152" y="333.051" class="st1" width="113.704" height="39.282"/>
	<path id="XMLID_104_" class="st0" d="M341.878,394.296l-171.747,0.002c-6.065,0-10.982-4.917-10.982-10.982v0
		c0-6.065,4.917-10.982,10.982-10.982l171.747-0.002c6.065,0,10.982,4.917,10.982,10.982l0,0
		C352.86,389.379,347.943,394.296,341.878,394.296z"/>
	<path id="XMLID_103_" class="st1" d="M341.878,384.296l-171.747,0.002c-4.263,0-7.949-2.433-9.77-5.982
		c-0.77,1.501-1.212,3.197-1.212,5v0c0,6.065,4.917,10.982,10.982,10.982l171.747-0.002c6.065,0,10.982-4.917,10.982-10.982v0
		c0-1.803-0.443-3.499-1.212-5C349.827,381.862,346.14,384.296,341.878,384.296z"/>
	<polygon class="st3" points="256.002,255.907 173.632,214.723 173.631,118.333 256.001,159.517 	"/>
	<polygon class="st5" points="256.002,255.907 338.372,214.721 338.37,118.331 256.001,159.517 	"/>
	<polygon class="st4" points="256,77.147 173.631,118.333 256.001,159.517 338.37,118.331 	"/>
	<path class="st0" d="M53.32,469.945h-10V445.09c0-26.739,21.754-48.494,48.493-48.494c21.226,0,38.494-17.268,38.494-38.494V328h10
		v30.103c0,26.739-21.754,48.494-48.494,48.494c-21.225,0-38.493,17.268-38.493,38.494V469.945z"/>
	<path id="XMLID_102_" class="st3" d="M408.385,408H19.611c-10.832,0-19.613,8.781-19.613,19.613v64.774
		c0,10.832,8.781,19.613,19.613,19.613h388.774c10.832,0,19.613-8.781,19.613-19.613v-64.774
		C427.998,416.781,419.217,408,408.385,408z"/>
	<path class="st5" d="M477.998,512L477.998,512c-18.778,0-34-15.222-34-34v-16c0-18.778,15.222-34,34-34h0c18.778,0,34,15.222,34,34
		v16C511.998,496.778,496.776,512,477.998,512z"/>
	<path class="st3" d="M477.998,512c18.778,0,34-15.222,34-34v-16c0-0.675-0.062-1.334-0.101-2h-67.798
		c-0.039,0.666-0.101,1.325-0.101,2v16C443.998,496.778,459.22,512,477.998,512z"/>
	<path class="st5" d="M408.385,492H19.611c-10.832,0-19.613-8.781-19.613-19.613v20c0,10.832,8.781,19.613,19.613,19.613h388.774
		c10.832,0,19.613-8.781,19.613-19.613v-20C427.998,483.219,419.217,492,408.385,492z"/>
	<path class="st5" d="M477.998,492c-18.102,0-32.858-14.158-33.899-31.999c-0.039,0.665-0.101,1.324-0.101,1.999v16
		c0,18.778,15.222,34,34,34s34-15.222,34-34v-16c0-0.675-0.062-1.334-0.101-1.999C510.856,477.842,496.1,492,477.998,492z"/>
	<path class="st0" d="M477.998,452L477.998,452c-3.314,0-6-2.686-6-6v-16c0-3.314,2.686-6,6-6l0,0c3.314,0,6,2.686,6,6v16
		C483.998,449.314,481.312,452,477.998,452z"/>
	<path class="st5" d="M75.69,492L75.69,492c0-3.314,2.686-6,6-6h278c3.314,0,6,2.686,6,6l0,0c0,3.314-2.686,6-6,6h-278
		C78.377,498,75.69,495.314,75.69,492z"/>
	<path class="st5" d="M39.998,468L39.998,468c0-3.314,2.686-6,6-6h59.385c3.314,0,6,2.686,6,6l0,0c0,3.314-2.686,6-6,6H45.998
		C42.684,474,39.998,471.314,39.998,468z"/>
	<path class="st5" d="M39.998,448L39.998,448c0-3.314,2.686-6,6-6h37.077c3.314,0,6,2.686,6,6v0c0,3.314-2.686,6-6,6H45.998
		C42.684,454,39.998,451.314,39.998,448z"/>
	<path class="st5" d="M39.998,428L39.998,428c0-3.314,2.686-6,6-6h37.077c3.314,0,6,2.686,6,6v0c0,3.314-2.686,6-6,6H45.998
		C42.684,434,39.998,431.314,39.998,428z"/>
	<path class="st5" d="M387.998,468L387.998,468c0-3.314-2.686-6-6-6h-59.385c-3.314,0-6,2.686-6,6l0,0c0,3.314,2.686,6,6,6h59.385
		C385.312,474,387.998,471.314,387.998,468z"/>
	<path class="st5" d="M387.998,448L387.998,448c0-3.314-2.686-6-6-6h-37.077c-3.314,0-6,2.686-6,6v0c0,3.314,2.686,6,6,6h37.077
		C385.312,454,387.998,451.314,387.998,448z"/>
	<path class="st5" d="M387.998,428L387.998,428c0-3.314-2.686-6-6-6h-37.077c-3.314,0-6,2.686-6,6v0c0,3.314,2.686,6,6,6h37.077
		C385.312,434,387.998,431.314,387.998,428z"/>
	<path class="st5" d="M120.306,468L120.306,468c0-3.314,2.686-6,6-6h42.383c3.314,0,6,2.686,6,6l0,0c0,3.314-2.686,6-6,6h-42.383
		C122.992,474,120.306,471.314,120.306,468z"/>
	<path class="st5" d="M97.998,448L97.998,448c0-3.314,2.686-6,6-6h39.04c3.314,0,6,2.686,6,6l0,0c0,3.314-2.686,6-6,6h-39.04
		C100.684,454,97.998,451.314,97.998,448z"/>
	<path class="st5" d="M97.998,428L97.998,428c0-3.314,2.686-6,6-6h39.04c3.314,0,6,2.686,6,6l0,0c0,3.314-2.686,6-6,6h-39.04
		C100.684,434,97.998,431.314,97.998,428z"/>
	<path class="st5" d="M184.576,468L184.576,468c0-3.314,2.686-6,6-6h42.383c3.314,0,6,2.686,6,6l0,0c0,3.314-2.686,6-6,6h-42.383
		C187.262,474,184.576,471.314,184.576,468z"/>
	<path class="st5" d="M158.318,448L158.318,448c0-3.314,2.686-6,6-6h39.04c3.314,0,6,2.686,6,6l0,0c0,3.314-2.686,6-6,6h-39.04
		C161.004,454,158.318,451.314,158.318,448z"/>
	<path class="st5" d="M158.318,428L158.318,428c0-3.314,2.686-6,6-6h39.04c3.314,0,6,2.686,6,6l0,0c0,3.314-2.686,6-6,6h-39.04
		C161.004,434,158.318,431.314,158.318,428z"/>
	<path class="st5" d="M248.846,468L248.846,468c0-3.314,2.686-6,6-6h42.383c3.314,0,6,2.686,6,6l0,0c0,3.314-2.686,6-6,6h-42.383
		C251.532,474,248.846,471.314,248.846,468z"/>
	<path class="st5" d="M218.638,448L218.638,448c0-3.314,2.686-6,6-6h39.04c3.314,0,6,2.686,6,6l0,0c0,3.314-2.686,6-6,6h-39.04
		C221.324,454,218.638,451.314,218.638,448z"/>
	<path class="st5" d="M218.638,428L218.638,428c0-3.314,2.686-6,6-6h39.04c3.314,0,6,2.686,6,6l0,0c0,3.314-2.686,6-6,6h-39.04
		C221.324,434,218.638,431.314,218.638,428z"/>
	<path class="st5" d="M278.958,448L278.958,448c0-3.314,2.686-6,6-6h39.04c3.314,0,6,2.686,6,6l0,0c0,3.314-2.686,6-6,6h-39.04
		C281.644,454,278.958,451.314,278.958,448z"/>
	<path class="st5" d="M278.958,428L278.958,428c0-3.314,2.686-6,6-6h39.04c3.314,0,6,2.686,6,6l0,0c0,3.314-2.686,6-6,6h-39.04
		C281.644,434,278.958,431.314,278.958,428z"/>
	<g>
		<path class="st1" d="M363.998,278h-36.889v-12h30.889v-30.889h12V272C369.998,275.314,367.312,278,363.998,278z"/>
	</g>
	<g>
		<path class="st1" d="M369.998,92.889h-12V62h-30.889V50h36.889c3.313,0,6,2.686,6,6V92.889z"/>
	</g>
	<g>
		<path class="st1" d="M153.998,92.889h-12V56c0-3.314,2.687-6,6-6h36.889v12h-30.889V92.889z"/>
	</g>
	<g>
		<path class="st1" d="M184.887,278h-36.889c-3.313,0-6-2.686-6-6v-36.889h12V266h30.889V278z"/>
	</g>
</g>
</svg>
