<?xml version="1.0" standalone="no"?>
<!DOCTYPE svg PUBLIC "-//W3C//DTD SVG 20010904//EN"
 "http://www.w3.org/TR/2001/REC-SVG-20010904/DTD/svg10.dtd">
<svg version="1.0" xmlns="http://www.w3.org/2000/svg"
 width="512.000000pt" height="512.000000pt" viewBox="0 0 512.000000 512.000000"
 preserveAspectRatio="xMidYMid meet">

<g transform="translate(0.000000,512.000000) scale(0.100000,-0.100000)"
fill="#000000" stroke="none">
<path d="M3355 3966 l-530 -143 -11 48 c-15 67 -55 123 -111 156 l-48 28 -639
3 c-717 3 -714 3 -782 -65 -65 -65 -68 -80 -74 -362 l-5 -254 -39 -14 c-60
-20 -101 -57 -130 -115 -23 -47 -26 -63 -26 -163 0 -127 9 -146 78 -164 54
-14 1797 -481 2576 -690 406 -109 679 -187 695 -199 14 -10 36 -34 49 -52 22
-33 22 -35 22 -426 l0 -394 -719 0 -718 0 -5 138 c-6 154 -17 190 -76 248 -54
52 -109 64 -302 64 -193 0 -248 -12 -302 -64 -59 -58 -70 -94 -76 -248 l-5
-138 -718 0 -719 0 0 888 0 889 35 31 c45 42 54 76 28 110 -46 61 -146 23
-194 -75 l-24 -48 -3 -897 -3 -897 -270 -3 -271 -3 -19 -24 c-25 -30 -24 -62
2 -95 l20 -26 1120 0 c737 0 1127 3 1139 10 30 16 40 74 40 242 l0 157 26 20
c25 19 40 21 194 21 154 0 169 -2 194 -21 l26 -20 0 -157 c0 -168 10 -226 40
-242 12 -7 402 -10 1139 -10 l1120 0 20 26 c26 33 27 65 2 95 l-19 24 -270 3
-270 3 -4 397 c-4 351 -6 403 -22 445 -23 60 -103 149 -159 176 -23 11 -339
99 -702 197 -363 97 -1083 290 -1600 428 l-940 252 -3 54 c-4 63 10 95 47 109
14 5 161 46 326 90 165 44 780 208 1366 365 586 157 1077 286 1092 286 16 0
33 -10 46 -26 21 -26 21 -33 21 -749 0 -716 0 -723 21 -749 29 -36 80 -36 109
1 20 26 20 28 18 772 -3 672 -5 749 -20 776 -42 77 -121 125 -203 124 -31 0
-247 -54 -580 -143z m-732 -67 c44 -20 66 -112 30 -123 -26 -7 -1283 -343
-1316 -352 l-28 -6 3 222 3 222 28 24 28 24 614 0 c429 0 621 -3 638 -11z"/>
<path d="M955 2348 c-44 -24 -45 -31 -45 -293 0 -250 0 -252 23 -273 33 -31
80 -29 106 4 19 24 21 40 21 167 l0 140 59 -56 c79 -76 99 -76 180 -1 l61 56
0 -144 c0 -138 1 -145 23 -166 33 -31 80 -29 106 4 20 25 21 39 21 271 0 140
-4 252 -10 263 -14 26 -66 42 -93 29 -12 -6 -61 -50 -109 -97 l-88 -87 -87 87
c-81 79 -119 108 -140 108 -4 0 -17 -6 -28 -12z"/>
<path d="M1815 2350 c-12 -4 -26 -14 -32 -21 -21 -26 -183 -472 -183 -505 0
-74 113 -89 140 -18 9 23 13 24 97 24 l88 -1 20 -32 c38 -60 135 -41 135 28 0
33 -169 486 -189 506 -21 22 -51 30 -76 19z m40 -326 c19 -47 20 -44 -16 -44
-24 0 -30 3 -25 16 3 9 9 27 12 40 8 32 11 31 29 -12z"/>
<path d="M2213 2350 c-40 -16 -43 -38 -43 -299 0 -317 -17 -291 189 -291 l150
0 20 26 c27 35 26 57 -3 91 -23 26 -30 28 -115 31 l-91 4 0 193 c0 187 -1 195
-22 219 -27 29 -55 38 -85 26z"/>
<path d="M2643 2345 c-16 -7 -33 -20 -37 -30 -3 -9 -6 -126 -6 -259 0 -318
-14 -296 189 -296 141 0 148 1 169 23 22 23 27 51 16 82 -12 30 -60 45 -144
45 l-80 0 0 196 c0 108 -4 203 -10 214 -15 28 -61 40 -97 25z"/>
</g>
</svg>
